<mxfile host="app.diagrams.net" modified="2024-04-08T10:18:21.833Z" agent="Mozilla/5.0 (Windows NT 10.0; Win64; x64) AppleWebKit/537.36 (KHTML, like Gecko) Chrome/123.0.0.0 Safari/537.36" etag="TmDrxSoyQBK2jRwGz1tg" version="24.2.2" type="device" pages="2">
  <diagram name="usecases" id="TRVuEuBvvdv5Inwpats6">
    <mxGraphModel dx="1750" dy="870" grid="1" gridSize="10" guides="1" tooltips="1" connect="1" arrows="1" fold="1" page="1" pageScale="1" pageWidth="827" pageHeight="1169" math="0" shadow="0">
      <root>
        <mxCell id="0" />
        <mxCell id="1" parent="0" />
        <mxCell id="rag-BQwi-QLOFucjsmVk-1" value="Гость" style="shape=umlActor;verticalLabelPosition=bottom;verticalAlign=top;html=1;outlineConnect=0;" vertex="1" parent="1">
          <mxGeometry x="350" y="270" width="30" height="60" as="geometry" />
        </mxCell>
        <mxCell id="rag-BQwi-QLOFucjsmVk-2" value="Просмотреть список спортзалов" style="ellipse;whiteSpace=wrap;html=1;" vertex="1" parent="1">
          <mxGeometry x="500" y="170" width="190" height="60" as="geometry" />
        </mxCell>
        <mxCell id="rag-BQwi-QLOFucjsmVk-3" value="" style="endArrow=none;html=1;rounded=0;exitX=1;exitY=0.3333333333333333;exitDx=0;exitDy=0;exitPerimeter=0;" edge="1" parent="1" source="rag-BQwi-QLOFucjsmVk-1">
          <mxGeometry width="50" height="50" relative="1" as="geometry">
            <mxPoint x="340" y="300" as="sourcePoint" />
            <mxPoint x="450" y="290" as="targetPoint" />
          </mxGeometry>
        </mxCell>
        <mxCell id="rag-BQwi-QLOFucjsmVk-4" value="" style="endArrow=none;html=1;rounded=0;entryX=0;entryY=0.5;entryDx=0;entryDy=0;" edge="1" parent="1" target="rag-BQwi-QLOFucjsmVk-2">
          <mxGeometry width="50" height="50" relative="1" as="geometry">
            <mxPoint x="450" y="290" as="sourcePoint" />
            <mxPoint x="390" y="250" as="targetPoint" />
          </mxGeometry>
        </mxCell>
        <mxCell id="rag-BQwi-QLOFucjsmVk-5" value="Просмотреть список тренеров&lt;div&gt;в спортзале&lt;/div&gt;" style="ellipse;whiteSpace=wrap;html=1;" vertex="1" parent="1">
          <mxGeometry x="500" y="350" width="190" height="60" as="geometry" />
        </mxCell>
        <mxCell id="rag-BQwi-QLOFucjsmVk-6" value="" style="endArrow=none;html=1;rounded=0;entryX=0;entryY=0.5;entryDx=0;entryDy=0;" edge="1" parent="1" target="rag-BQwi-QLOFucjsmVk-5">
          <mxGeometry width="50" height="50" relative="1" as="geometry">
            <mxPoint x="450" y="290" as="sourcePoint" />
            <mxPoint x="390" y="250" as="targetPoint" />
          </mxGeometry>
        </mxCell>
        <mxCell id="rag-BQwi-QLOFucjsmVk-7" value="Просмотреть список оборудования в спортзале" style="ellipse;whiteSpace=wrap;html=1;" vertex="1" parent="1">
          <mxGeometry x="498" y="260" width="190" height="60" as="geometry" />
        </mxCell>
        <mxCell id="rag-BQwi-QLOFucjsmVk-8" value="" style="endArrow=none;html=1;rounded=0;exitX=0;exitY=0.5;exitDx=0;exitDy=0;" edge="1" parent="1" source="rag-BQwi-QLOFucjsmVk-7">
          <mxGeometry width="50" height="50" relative="1" as="geometry">
            <mxPoint x="340" y="300" as="sourcePoint" />
            <mxPoint x="450" y="290" as="targetPoint" />
          </mxGeometry>
        </mxCell>
        <mxCell id="rag-BQwi-QLOFucjsmVk-9" value="Клиент" style="shape=umlActor;verticalLabelPosition=bottom;verticalAlign=top;html=1;outlineConnect=0;" vertex="1" parent="1">
          <mxGeometry x="810" y="270" width="30" height="60" as="geometry" />
        </mxCell>
        <mxCell id="rag-BQwi-QLOFucjsmVk-11" value="" style="endArrow=none;html=1;rounded=0;entryX=0;entryY=0.3333333333333333;entryDx=0;entryDy=0;entryPerimeter=0;" edge="1" parent="1" target="rag-BQwi-QLOFucjsmVk-9">
          <mxGeometry width="50" height="50" relative="1" as="geometry">
            <mxPoint x="760" y="290" as="sourcePoint" />
            <mxPoint x="580" y="260" as="targetPoint" />
          </mxGeometry>
        </mxCell>
        <mxCell id="rag-BQwi-QLOFucjsmVk-12" value="" style="endArrow=none;html=1;rounded=0;exitX=1;exitY=0.5;exitDx=0;exitDy=0;" edge="1" parent="1" source="rag-BQwi-QLOFucjsmVk-5">
          <mxGeometry width="50" height="50" relative="1" as="geometry">
            <mxPoint x="530" y="310" as="sourcePoint" />
            <mxPoint x="740" y="290" as="targetPoint" />
          </mxGeometry>
        </mxCell>
        <mxCell id="rag-BQwi-QLOFucjsmVk-13" value="" style="endArrow=none;html=1;rounded=0;" edge="1" parent="1">
          <mxGeometry width="50" height="50" relative="1" as="geometry">
            <mxPoint x="690" y="290" as="sourcePoint" />
            <mxPoint x="760" y="290" as="targetPoint" />
          </mxGeometry>
        </mxCell>
        <mxCell id="rag-BQwi-QLOFucjsmVk-14" value="" style="endArrow=none;html=1;rounded=0;exitX=1;exitY=0.5;exitDx=0;exitDy=0;" edge="1" parent="1" source="rag-BQwi-QLOFucjsmVk-2">
          <mxGeometry width="50" height="50" relative="1" as="geometry">
            <mxPoint x="530" y="310" as="sourcePoint" />
            <mxPoint x="740" y="290" as="targetPoint" />
          </mxGeometry>
        </mxCell>
        <mxCell id="rag-BQwi-QLOFucjsmVk-15" value="Просмотреть список абонементов" style="ellipse;whiteSpace=wrap;html=1;" vertex="1" parent="1">
          <mxGeometry x="986" y="191" width="190" height="60" as="geometry" />
        </mxCell>
        <mxCell id="rag-BQwi-QLOFucjsmVk-16" value="" style="endArrow=none;html=1;rounded=0;exitX=0;exitY=0.5;exitDx=0;exitDy=0;" edge="1" parent="1" source="rag-BQwi-QLOFucjsmVk-15">
          <mxGeometry width="50" height="50" relative="1" as="geometry">
            <mxPoint x="530" y="360" as="sourcePoint" />
            <mxPoint x="910" y="290" as="targetPoint" />
          </mxGeometry>
        </mxCell>
        <mxCell id="rag-BQwi-QLOFucjsmVk-17" value="Просмотреть расписание тренировок" style="ellipse;whiteSpace=wrap;html=1;" vertex="1" parent="1">
          <mxGeometry x="980" y="260" width="190" height="60" as="geometry" />
        </mxCell>
        <mxCell id="rag-BQwi-QLOFucjsmVk-18" value="" style="endArrow=none;html=1;rounded=0;exitX=0;exitY=0.5;exitDx=0;exitDy=0;" edge="1" parent="1" source="rag-BQwi-QLOFucjsmVk-17">
          <mxGeometry width="50" height="50" relative="1" as="geometry">
            <mxPoint x="530" y="360" as="sourcePoint" />
            <mxPoint x="910" y="290" as="targetPoint" />
          </mxGeometry>
        </mxCell>
        <mxCell id="rag-BQwi-QLOFucjsmVk-19" value="Купить абонемент" style="ellipse;whiteSpace=wrap;html=1;" vertex="1" parent="1">
          <mxGeometry x="985" y="333" width="190" height="60" as="geometry" />
        </mxCell>
        <mxCell id="rag-BQwi-QLOFucjsmVk-20" value="" style="endArrow=none;html=1;rounded=0;exitX=0;exitY=0.5;exitDx=0;exitDy=0;" edge="1" parent="1" source="rag-BQwi-QLOFucjsmVk-19">
          <mxGeometry width="50" height="50" relative="1" as="geometry">
            <mxPoint x="640" y="420" as="sourcePoint" />
            <mxPoint x="910" y="290" as="targetPoint" />
          </mxGeometry>
        </mxCell>
        <mxCell id="rag-BQwi-QLOFucjsmVk-22" value="Записаться на тренировку" style="ellipse;whiteSpace=wrap;html=1;" vertex="1" parent="1">
          <mxGeometry x="986" y="120" width="190" height="60" as="geometry" />
        </mxCell>
        <mxCell id="rag-BQwi-QLOFucjsmVk-23" value="" style="endArrow=none;html=1;rounded=0;exitX=0;exitY=0.5;exitDx=0;exitDy=0;" edge="1" parent="1" source="rag-BQwi-QLOFucjsmVk-22">
          <mxGeometry width="50" height="50" relative="1" as="geometry">
            <mxPoint x="640" y="420" as="sourcePoint" />
            <mxPoint x="910" y="290" as="targetPoint" />
          </mxGeometry>
        </mxCell>
        <mxCell id="rag-BQwi-QLOFucjsmVk-24" value="Зарегистрироваться" style="ellipse;whiteSpace=wrap;html=1;" vertex="1" parent="1">
          <mxGeometry x="30" y="170" width="190" height="60" as="geometry" />
        </mxCell>
        <mxCell id="rag-BQwi-QLOFucjsmVk-25" value="" style="endArrow=none;html=1;rounded=0;entryX=1;entryY=0.5;entryDx=0;entryDy=0;" edge="1" parent="1" target="rag-BQwi-QLOFucjsmVk-24">
          <mxGeometry width="50" height="50" relative="1" as="geometry">
            <mxPoint x="280" y="290" as="sourcePoint" />
            <mxPoint x="690" y="370" as="targetPoint" />
          </mxGeometry>
        </mxCell>
        <mxCell id="rag-BQwi-QLOFucjsmVk-26" value="" style="endArrow=none;html=1;rounded=0;exitX=0;exitY=0.3333333333333333;exitDx=0;exitDy=0;exitPerimeter=0;" edge="1" parent="1" source="rag-BQwi-QLOFucjsmVk-1">
          <mxGeometry width="50" height="50" relative="1" as="geometry">
            <mxPoint x="640" y="420" as="sourcePoint" />
            <mxPoint x="280" y="290" as="targetPoint" />
          </mxGeometry>
        </mxCell>
        <mxCell id="rag-BQwi-QLOFucjsmVk-27" value="" style="endArrow=none;html=1;rounded=0;exitX=0;exitY=0.3333333333333333;exitDx=0;exitDy=0;exitPerimeter=0;" edge="1" parent="1">
          <mxGeometry width="50" height="50" relative="1" as="geometry">
            <mxPoint x="910" y="289.38" as="sourcePoint" />
            <mxPoint x="840" y="289.38" as="targetPoint" />
          </mxGeometry>
        </mxCell>
        <mxCell id="rag-BQwi-QLOFucjsmVk-28" value="Авторизоваться" style="ellipse;whiteSpace=wrap;html=1;" vertex="1" parent="1">
          <mxGeometry x="985" y="410" width="190" height="60" as="geometry" />
        </mxCell>
        <mxCell id="rag-BQwi-QLOFucjsmVk-29" value="Выйти" style="ellipse;whiteSpace=wrap;html=1;" vertex="1" parent="1">
          <mxGeometry x="980" y="480" width="190" height="60" as="geometry" />
        </mxCell>
        <mxCell id="rag-BQwi-QLOFucjsmVk-30" value="" style="endArrow=none;html=1;rounded=0;exitX=0;exitY=0.5;exitDx=0;exitDy=0;" edge="1" parent="1" source="rag-BQwi-QLOFucjsmVk-28">
          <mxGeometry width="50" height="50" relative="1" as="geometry">
            <mxPoint x="660" y="390" as="sourcePoint" />
            <mxPoint x="910" y="290" as="targetPoint" />
          </mxGeometry>
        </mxCell>
        <mxCell id="rag-BQwi-QLOFucjsmVk-31" value="" style="endArrow=none;html=1;rounded=0;exitX=0;exitY=0.5;exitDx=0;exitDy=0;" edge="1" parent="1" source="rag-BQwi-QLOFucjsmVk-29">
          <mxGeometry width="50" height="50" relative="1" as="geometry">
            <mxPoint x="995" y="450" as="sourcePoint" />
            <mxPoint x="910" y="290" as="targetPoint" />
          </mxGeometry>
        </mxCell>
        <mxCell id="rag-BQwi-QLOFucjsmVk-32" value="Админ" style="shape=umlActor;verticalLabelPosition=bottom;verticalAlign=top;html=1;outlineConnect=0;" vertex="1" parent="1">
          <mxGeometry x="580" y="560" width="30" height="60" as="geometry" />
        </mxCell>
        <mxCell id="rag-BQwi-QLOFucjsmVk-33" value="" style="endArrow=none;html=1;rounded=0;exitX=1;exitY=0.3333333333333333;exitDx=0;exitDy=0;exitPerimeter=0;" edge="1" parent="1" source="rag-BQwi-QLOFucjsmVk-32">
          <mxGeometry width="50" height="50" relative="1" as="geometry">
            <mxPoint x="770" y="300" as="sourcePoint" />
            <mxPoint x="650" y="580" as="targetPoint" />
          </mxGeometry>
        </mxCell>
        <mxCell id="rag-BQwi-QLOFucjsmVk-34" value="" style="endArrow=none;html=1;rounded=0;exitX=1;exitY=0.5;exitDx=0;exitDy=0;" edge="1" parent="1">
          <mxGeometry width="50" height="50" relative="1" as="geometry">
            <mxPoint x="650" y="580" as="sourcePoint" />
            <mxPoint x="700" y="490" as="targetPoint" />
          </mxGeometry>
        </mxCell>
        <mxCell id="rag-BQwi-QLOFucjsmVk-35" value="Добавить зал" style="ellipse;whiteSpace=wrap;html=1;" vertex="1" parent="1">
          <mxGeometry x="700" y="460" width="190" height="60" as="geometry" />
        </mxCell>
        <mxCell id="rag-BQwi-QLOFucjsmVk-36" value="Изменить информацию о зале" style="ellipse;whiteSpace=wrap;html=1;" vertex="1" parent="1">
          <mxGeometry x="700" y="550" width="190" height="60" as="geometry" />
        </mxCell>
        <mxCell id="rag-BQwi-QLOFucjsmVk-37" value="" style="endArrow=none;html=1;rounded=0;entryX=0;entryY=0.5;entryDx=0;entryDy=0;" edge="1" parent="1" target="rag-BQwi-QLOFucjsmVk-36">
          <mxGeometry width="50" height="50" relative="1" as="geometry">
            <mxPoint x="650" y="580" as="sourcePoint" />
            <mxPoint x="710" y="500" as="targetPoint" />
          </mxGeometry>
        </mxCell>
        <mxCell id="rag-BQwi-QLOFucjsmVk-39" value="Добавить тренера" style="ellipse;whiteSpace=wrap;html=1;" vertex="1" parent="1">
          <mxGeometry x="700" y="630" width="190" height="60" as="geometry" />
        </mxCell>
        <mxCell id="rag-BQwi-QLOFucjsmVk-40" value="" style="endArrow=none;html=1;rounded=0;entryX=0;entryY=0.5;entryDx=0;entryDy=0;" edge="1" parent="1" target="rag-BQwi-QLOFucjsmVk-39">
          <mxGeometry width="50" height="50" relative="1" as="geometry">
            <mxPoint x="650" y="580" as="sourcePoint" />
            <mxPoint x="650" y="330" as="targetPoint" />
          </mxGeometry>
        </mxCell>
        <mxCell id="rag-BQwi-QLOFucjsmVk-41" value="Изменить информацию о тренере" style="ellipse;whiteSpace=wrap;html=1;" vertex="1" parent="1">
          <mxGeometry x="308" y="460" width="190" height="60" as="geometry" />
        </mxCell>
        <mxCell id="rag-BQwi-QLOFucjsmVk-42" value="" style="endArrow=none;html=1;rounded=0;exitX=1;exitY=0.3333333333333333;exitDx=0;exitDy=0;exitPerimeter=0;" edge="1" parent="1">
          <mxGeometry width="50" height="50" relative="1" as="geometry">
            <mxPoint x="540" y="579.41" as="sourcePoint" />
            <mxPoint x="580" y="579.41" as="targetPoint" />
          </mxGeometry>
        </mxCell>
        <mxCell id="rag-BQwi-QLOFucjsmVk-43" value="" style="endArrow=none;html=1;rounded=0;exitX=1;exitY=0.5;exitDx=0;exitDy=0;" edge="1" parent="1" source="rag-BQwi-QLOFucjsmVk-41">
          <mxGeometry width="50" height="50" relative="1" as="geometry">
            <mxPoint x="590" y="490" as="sourcePoint" />
            <mxPoint x="540" y="580" as="targetPoint" />
          </mxGeometry>
        </mxCell>
        <mxCell id="rag-BQwi-QLOFucjsmVk-44" value="Добавить оборудование" style="ellipse;whiteSpace=wrap;html=1;" vertex="1" parent="1">
          <mxGeometry x="308" y="550" width="190" height="60" as="geometry" />
        </mxCell>
        <mxCell id="rag-BQwi-QLOFucjsmVk-45" value="" style="endArrow=none;html=1;rounded=0;entryX=0;entryY=0.5;entryDx=0;entryDy=0;" edge="1" parent="1">
          <mxGeometry width="50" height="50" relative="1" as="geometry">
            <mxPoint x="498" y="579.41" as="sourcePoint" />
            <mxPoint x="548" y="579.41" as="targetPoint" />
          </mxGeometry>
        </mxCell>
        <mxCell id="rag-BQwi-QLOFucjsmVk-46" value="Изменить информацию об оборудовании" style="ellipse;whiteSpace=wrap;html=1;" vertex="1" parent="1">
          <mxGeometry x="310" y="630" width="190" height="60" as="geometry" />
        </mxCell>
        <mxCell id="rag-BQwi-QLOFucjsmVk-47" value="" style="endArrow=none;html=1;rounded=0;entryX=1;entryY=0.5;entryDx=0;entryDy=0;" edge="1" parent="1" target="rag-BQwi-QLOFucjsmVk-46">
          <mxGeometry width="50" height="50" relative="1" as="geometry">
            <mxPoint x="540" y="580" as="sourcePoint" />
            <mxPoint x="660" y="430" as="targetPoint" />
          </mxGeometry>
        </mxCell>
      </root>
    </mxGraphModel>
  </diagram>
  <diagram id="Bo6eww_ZPeu4svtfdiU2" name="ER">
    <mxGraphModel dx="2442" dy="803" grid="1" gridSize="10" guides="1" tooltips="1" connect="1" arrows="1" fold="1" page="1" pageScale="1" pageWidth="827" pageHeight="1169" math="0" shadow="0">
      <root>
        <mxCell id="0" />
        <mxCell id="1" parent="0" />
        <mxCell id="Ph7lW5ck54dBPAjGim_W-3" style="edgeStyle=orthogonalEdgeStyle;rounded=0;orthogonalLoop=1;jettySize=auto;html=1;exitX=0;exitY=0.5;exitDx=0;exitDy=0;entryX=1;entryY=0.5;entryDx=0;entryDy=0;endArrow=none;endFill=0;" edge="1" parent="1" source="Ph7lW5ck54dBPAjGim_W-1" target="Ph7lW5ck54dBPAjGim_W-2">
          <mxGeometry relative="1" as="geometry">
            <Array as="points">
              <mxPoint x="340" y="332" />
              <mxPoint x="340" y="227" />
            </Array>
          </mxGeometry>
        </mxCell>
        <mxCell id="Ph7lW5ck54dBPAjGim_W-6" style="edgeStyle=orthogonalEdgeStyle;rounded=0;orthogonalLoop=1;jettySize=auto;html=1;exitX=0;exitY=0.5;exitDx=0;exitDy=0;entryX=1;entryY=0.5;entryDx=0;entryDy=0;strokeColor=default;align=center;verticalAlign=middle;fontFamily=Helvetica;fontSize=11;fontColor=default;labelBackgroundColor=default;endArrow=none;endFill=0;" edge="1" parent="1" source="Ph7lW5ck54dBPAjGim_W-1" target="Ph7lW5ck54dBPAjGim_W-4">
          <mxGeometry relative="1" as="geometry">
            <Array as="points">
              <mxPoint x="340" y="332" />
              <mxPoint x="340" y="282" />
            </Array>
          </mxGeometry>
        </mxCell>
        <mxCell id="Ph7lW5ck54dBPAjGim_W-7" style="edgeStyle=orthogonalEdgeStyle;rounded=0;orthogonalLoop=1;jettySize=auto;html=1;exitX=0;exitY=0.5;exitDx=0;exitDy=0;entryX=1;entryY=0.5;entryDx=0;entryDy=0;strokeColor=default;align=center;verticalAlign=middle;fontFamily=Helvetica;fontSize=11;fontColor=default;labelBackgroundColor=default;endArrow=none;endFill=0;" edge="1" parent="1" source="Ph7lW5ck54dBPAjGim_W-1" target="Ph7lW5ck54dBPAjGim_W-5">
          <mxGeometry relative="1" as="geometry">
            <Array as="points">
              <mxPoint x="340" y="332" />
              <mxPoint x="340" y="382" />
            </Array>
          </mxGeometry>
        </mxCell>
        <mxCell id="Ph7lW5ck54dBPAjGim_W-9" style="edgeStyle=orthogonalEdgeStyle;rounded=0;orthogonalLoop=1;jettySize=auto;html=1;exitX=0;exitY=0.5;exitDx=0;exitDy=0;entryX=1;entryY=0.5;entryDx=0;entryDy=0;strokeColor=default;align=center;verticalAlign=middle;fontFamily=Helvetica;fontSize=11;fontColor=default;labelBackgroundColor=default;endArrow=none;endFill=0;" edge="1" parent="1" source="Ph7lW5ck54dBPAjGim_W-1" target="Ph7lW5ck54dBPAjGim_W-8">
          <mxGeometry relative="1" as="geometry">
            <Array as="points">
              <mxPoint x="340" y="332" />
              <mxPoint x="340" y="432" />
            </Array>
          </mxGeometry>
        </mxCell>
        <mxCell id="Ph7lW5ck54dBPAjGim_W-12" style="edgeStyle=orthogonalEdgeStyle;rounded=0;orthogonalLoop=1;jettySize=auto;html=1;exitX=0;exitY=0.5;exitDx=0;exitDy=0;entryX=1;entryY=0.5;entryDx=0;entryDy=0;strokeColor=default;align=center;verticalAlign=middle;fontFamily=Helvetica;fontSize=11;fontColor=default;labelBackgroundColor=default;endArrow=none;endFill=0;" edge="1" parent="1" source="Ph7lW5ck54dBPAjGim_W-1" target="Ph7lW5ck54dBPAjGim_W-10">
          <mxGeometry relative="1" as="geometry" />
        </mxCell>
        <mxCell id="Ph7lW5ck54dBPAjGim_W-15" style="edgeStyle=orthogonalEdgeStyle;rounded=0;orthogonalLoop=1;jettySize=auto;html=1;exitX=0.5;exitY=0;exitDx=0;exitDy=0;entryX=0.5;entryY=1;entryDx=0;entryDy=0;strokeColor=default;align=center;verticalAlign=middle;fontFamily=Helvetica;fontSize=11;fontColor=default;labelBackgroundColor=default;endArrow=none;endFill=0;" edge="1" parent="1" source="Ph7lW5ck54dBPAjGim_W-1" target="Ph7lW5ck54dBPAjGim_W-14">
          <mxGeometry relative="1" as="geometry" />
        </mxCell>
        <mxCell id="Ph7lW5ck54dBPAjGim_W-16" value="1" style="edgeLabel;html=1;align=center;verticalAlign=middle;resizable=0;points=[];fontFamily=Helvetica;fontSize=11;fontColor=default;labelBackgroundColor=default;" vertex="1" connectable="0" parent="Ph7lW5ck54dBPAjGim_W-15">
          <mxGeometry x="-0.5564" y="1" relative="1" as="geometry">
            <mxPoint as="offset" />
          </mxGeometry>
        </mxCell>
        <mxCell id="Ph7lW5ck54dBPAjGim_W-1" value="Тренажерный зал" style="whiteSpace=wrap;html=1;align=center;" vertex="1" parent="1">
          <mxGeometry x="370" y="312" width="100" height="40" as="geometry" />
        </mxCell>
        <mxCell id="Ph7lW5ck54dBPAjGim_W-2" value="Название" style="ellipse;whiteSpace=wrap;html=1;align=center;" vertex="1" parent="1">
          <mxGeometry x="200" y="207" width="100" height="40" as="geometry" />
        </mxCell>
        <mxCell id="Ph7lW5ck54dBPAjGim_W-4" value="Номер телефона" style="ellipse;whiteSpace=wrap;html=1;align=center;" vertex="1" parent="1">
          <mxGeometry x="200" y="262" width="100" height="40" as="geometry" />
        </mxCell>
        <mxCell id="Ph7lW5ck54dBPAjGim_W-5" value="Адрес" style="ellipse;whiteSpace=wrap;html=1;align=center;" vertex="1" parent="1">
          <mxGeometry x="200" y="362" width="100" height="40" as="geometry" />
        </mxCell>
        <mxCell id="Ph7lW5ck54dBPAjGim_W-8" value="Является сетевым" style="ellipse;whiteSpace=wrap;html=1;align=center;" vertex="1" parent="1">
          <mxGeometry x="200" y="412" width="100" height="40" as="geometry" />
        </mxCell>
        <mxCell id="Ph7lW5ck54dBPAjGim_W-10" value="Город" style="ellipse;whiteSpace=wrap;html=1;align=center;" vertex="1" parent="1">
          <mxGeometry x="200" y="312" width="100" height="40" as="geometry" />
        </mxCell>
        <mxCell id="Ph7lW5ck54dBPAjGim_W-60" style="edgeStyle=orthogonalEdgeStyle;rounded=0;orthogonalLoop=1;jettySize=auto;html=1;exitX=1;exitY=0.5;exitDx=0;exitDy=0;entryX=0;entryY=0.5;entryDx=0;entryDy=0;strokeColor=default;align=center;verticalAlign=middle;fontFamily=Helvetica;fontSize=11;fontColor=default;labelBackgroundColor=default;endArrow=none;endFill=0;" edge="1" parent="1" source="Ph7lW5ck54dBPAjGim_W-13" target="Ph7lW5ck54dBPAjGim_W-22">
          <mxGeometry relative="1" as="geometry" />
        </mxCell>
        <mxCell id="Ph7lW5ck54dBPAjGim_W-61" style="edgeStyle=orthogonalEdgeStyle;rounded=0;orthogonalLoop=1;jettySize=auto;html=1;exitX=1;exitY=0.5;exitDx=0;exitDy=0;entryX=0;entryY=0.5;entryDx=0;entryDy=0;strokeColor=default;align=center;verticalAlign=middle;fontFamily=Helvetica;fontSize=11;fontColor=default;labelBackgroundColor=default;endArrow=none;endFill=0;" edge="1" parent="1" source="Ph7lW5ck54dBPAjGim_W-13" target="Ph7lW5ck54dBPAjGim_W-21">
          <mxGeometry relative="1" as="geometry" />
        </mxCell>
        <mxCell id="Ph7lW5ck54dBPAjGim_W-13" value="Оборудование" style="whiteSpace=wrap;html=1;align=center;" vertex="1" parent="1">
          <mxGeometry x="510" y="220" width="100" height="40" as="geometry" />
        </mxCell>
        <mxCell id="Ph7lW5ck54dBPAjGim_W-17" style="edgeStyle=orthogonalEdgeStyle;rounded=0;orthogonalLoop=1;jettySize=auto;html=1;exitX=1;exitY=0.5;exitDx=0;exitDy=0;entryX=0;entryY=0.5;entryDx=0;entryDy=0;strokeColor=default;align=center;verticalAlign=middle;fontFamily=Helvetica;fontSize=11;fontColor=default;labelBackgroundColor=default;endArrow=none;endFill=0;" edge="1" parent="1" source="Ph7lW5ck54dBPAjGim_W-14" target="Ph7lW5ck54dBPAjGim_W-13">
          <mxGeometry relative="1" as="geometry" />
        </mxCell>
        <mxCell id="Ph7lW5ck54dBPAjGim_W-18" value="n" style="edgeLabel;html=1;align=center;verticalAlign=middle;resizable=0;points=[];fontFamily=Helvetica;fontSize=11;fontColor=default;labelBackgroundColor=default;" vertex="1" connectable="0" parent="Ph7lW5ck54dBPAjGim_W-17">
          <mxGeometry x="0.5644" relative="1" as="geometry">
            <mxPoint as="offset" />
          </mxGeometry>
        </mxCell>
        <mxCell id="Ph7lW5ck54dBPAjGim_W-14" value="Владеет" style="shape=rhombus;perimeter=rhombusPerimeter;whiteSpace=wrap;html=1;align=center;fontFamily=Helvetica;fontSize=11;fontColor=default;labelBackgroundColor=default;" vertex="1" parent="1">
          <mxGeometry x="360" y="210" width="120" height="60" as="geometry" />
        </mxCell>
        <mxCell id="Ph7lW5ck54dBPAjGim_W-26" style="edgeStyle=orthogonalEdgeStyle;rounded=0;orthogonalLoop=1;jettySize=auto;html=1;exitX=1;exitY=0.5;exitDx=0;exitDy=0;entryX=0;entryY=0.5;entryDx=0;entryDy=0;strokeColor=default;align=center;verticalAlign=middle;fontFamily=Helvetica;fontSize=11;fontColor=default;labelBackgroundColor=default;endArrow=none;endFill=0;" edge="1" parent="1" source="Ph7lW5ck54dBPAjGim_W-19" target="Ph7lW5ck54dBPAjGim_W-25">
          <mxGeometry relative="1" as="geometry" />
        </mxCell>
        <mxCell id="Ph7lW5ck54dBPAjGim_W-28" style="edgeStyle=orthogonalEdgeStyle;rounded=0;orthogonalLoop=1;jettySize=auto;html=1;exitX=1;exitY=0.5;exitDx=0;exitDy=0;entryX=0;entryY=0.5;entryDx=0;entryDy=0;strokeColor=default;align=center;verticalAlign=middle;fontFamily=Helvetica;fontSize=11;fontColor=default;labelBackgroundColor=default;endArrow=none;endFill=0;" edge="1" parent="1" source="Ph7lW5ck54dBPAjGim_W-19" target="Ph7lW5ck54dBPAjGim_W-27">
          <mxGeometry relative="1" as="geometry" />
        </mxCell>
        <mxCell id="Ph7lW5ck54dBPAjGim_W-31" style="edgeStyle=orthogonalEdgeStyle;rounded=0;orthogonalLoop=1;jettySize=auto;html=1;exitX=1;exitY=0.5;exitDx=0;exitDy=0;strokeColor=default;align=center;verticalAlign=middle;fontFamily=Helvetica;fontSize=11;fontColor=default;labelBackgroundColor=default;endArrow=none;endFill=0;" edge="1" parent="1" source="Ph7lW5ck54dBPAjGim_W-19" target="Ph7lW5ck54dBPAjGim_W-27">
          <mxGeometry relative="1" as="geometry" />
        </mxCell>
        <mxCell id="Ph7lW5ck54dBPAjGim_W-32" style="edgeStyle=orthogonalEdgeStyle;rounded=0;orthogonalLoop=1;jettySize=auto;html=1;exitX=1;exitY=0.5;exitDx=0;exitDy=0;entryX=0;entryY=0.5;entryDx=0;entryDy=0;strokeColor=default;align=center;verticalAlign=middle;fontFamily=Helvetica;fontSize=11;fontColor=default;labelBackgroundColor=default;endArrow=none;endFill=0;" edge="1" parent="1" source="Ph7lW5ck54dBPAjGim_W-19" target="Ph7lW5ck54dBPAjGim_W-29">
          <mxGeometry relative="1" as="geometry" />
        </mxCell>
        <mxCell id="Ph7lW5ck54dBPAjGim_W-36" style="edgeStyle=orthogonalEdgeStyle;rounded=0;orthogonalLoop=1;jettySize=auto;html=1;exitX=1;exitY=0.5;exitDx=0;exitDy=0;entryX=0;entryY=0.5;entryDx=0;entryDy=0;strokeColor=default;align=center;verticalAlign=middle;fontFamily=Helvetica;fontSize=11;fontColor=default;labelBackgroundColor=default;endArrow=none;endFill=0;" edge="1" parent="1" source="Ph7lW5ck54dBPAjGim_W-19" target="Ph7lW5ck54dBPAjGim_W-30">
          <mxGeometry relative="1" as="geometry" />
        </mxCell>
        <mxCell id="Ph7lW5ck54dBPAjGim_W-19" value="Типы абонементов спортзала" style="whiteSpace=wrap;html=1;align=center;" vertex="1" parent="1">
          <mxGeometry x="650" y="312" width="100" height="40" as="geometry" />
        </mxCell>
        <mxCell id="Ph7lW5ck54dBPAjGim_W-21" value="Название" style="ellipse;whiteSpace=wrap;html=1;align=center;" vertex="1" parent="1">
          <mxGeometry x="670" y="170" width="100" height="40" as="geometry" />
        </mxCell>
        <mxCell id="Ph7lW5ck54dBPAjGim_W-22" value="Описание" style="ellipse;whiteSpace=wrap;html=1;align=center;" vertex="1" parent="1">
          <mxGeometry x="670" y="220" width="100" height="40" as="geometry" />
        </mxCell>
        <mxCell id="Ph7lW5ck54dBPAjGim_W-25" value="Тип" style="ellipse;whiteSpace=wrap;html=1;align=center;" vertex="1" parent="1">
          <mxGeometry x="817" y="262" width="100" height="40" as="geometry" />
        </mxCell>
        <mxCell id="Ph7lW5ck54dBPAjGim_W-27" value="Описание" style="ellipse;whiteSpace=wrap;html=1;align=center;" vertex="1" parent="1">
          <mxGeometry x="817" y="312" width="100" height="40" as="geometry" />
        </mxCell>
        <mxCell id="Ph7lW5ck54dBPAjGim_W-29" value="Цена" style="ellipse;whiteSpace=wrap;html=1;align=center;" vertex="1" parent="1">
          <mxGeometry x="817" y="362" width="100" height="40" as="geometry" />
        </mxCell>
        <mxCell id="Ph7lW5ck54dBPAjGim_W-30" value="Длительность в днях" style="ellipse;whiteSpace=wrap;html=1;align=center;" vertex="1" parent="1">
          <mxGeometry x="817" y="412" width="100" height="40" as="geometry" />
        </mxCell>
        <mxCell id="Ph7lW5ck54dBPAjGim_W-34" style="edgeStyle=orthogonalEdgeStyle;rounded=0;orthogonalLoop=1;jettySize=auto;html=1;exitX=0;exitY=0.5;exitDx=0;exitDy=0;entryX=1;entryY=0.5;entryDx=0;entryDy=0;strokeColor=default;align=center;verticalAlign=middle;fontFamily=Helvetica;fontSize=11;fontColor=default;labelBackgroundColor=default;endArrow=none;endFill=0;" edge="1" parent="1" source="Ph7lW5ck54dBPAjGim_W-33" target="Ph7lW5ck54dBPAjGim_W-1">
          <mxGeometry relative="1" as="geometry" />
        </mxCell>
        <mxCell id="Ph7lW5ck54dBPAjGim_W-37" value="1" style="edgeLabel;html=1;align=center;verticalAlign=middle;resizable=0;points=[];fontFamily=Helvetica;fontSize=11;fontColor=default;labelBackgroundColor=default;" vertex="1" connectable="0" parent="Ph7lW5ck54dBPAjGim_W-34">
          <mxGeometry x="0.0667" relative="1" as="geometry">
            <mxPoint as="offset" />
          </mxGeometry>
        </mxCell>
        <mxCell id="Ph7lW5ck54dBPAjGim_W-35" style="edgeStyle=orthogonalEdgeStyle;rounded=0;orthogonalLoop=1;jettySize=auto;html=1;exitX=1;exitY=0.5;exitDx=0;exitDy=0;entryX=0;entryY=0.5;entryDx=0;entryDy=0;strokeColor=default;align=center;verticalAlign=middle;fontFamily=Helvetica;fontSize=11;fontColor=default;labelBackgroundColor=default;endArrow=none;endFill=0;" edge="1" parent="1" target="Ph7lW5ck54dBPAjGim_W-19">
          <mxGeometry relative="1" as="geometry">
            <mxPoint x="620" y="332" as="sourcePoint" />
          </mxGeometry>
        </mxCell>
        <mxCell id="Ph7lW5ck54dBPAjGim_W-38" value="n" style="edgeLabel;html=1;align=center;verticalAlign=middle;resizable=0;points=[];fontFamily=Helvetica;fontSize=11;fontColor=default;labelBackgroundColor=default;" vertex="1" connectable="0" parent="Ph7lW5ck54dBPAjGim_W-35">
          <mxGeometry x="0.4" relative="1" as="geometry">
            <mxPoint x="-2" y="-1" as="offset" />
          </mxGeometry>
        </mxCell>
        <mxCell id="Ph7lW5ck54dBPAjGim_W-33" value="Предоставляет" style="shape=rhombus;perimeter=rhombusPerimeter;whiteSpace=wrap;html=1;align=center;fontFamily=Helvetica;fontSize=11;fontColor=default;labelBackgroundColor=default;" vertex="1" parent="1">
          <mxGeometry x="500" y="302" width="120" height="60" as="geometry" />
        </mxCell>
        <mxCell id="Ph7lW5ck54dBPAjGim_W-51" style="edgeStyle=orthogonalEdgeStyle;rounded=0;orthogonalLoop=1;jettySize=auto;html=1;exitX=1;exitY=0.5;exitDx=0;exitDy=0;entryX=0;entryY=0.5;entryDx=0;entryDy=0;strokeColor=default;align=center;verticalAlign=middle;fontFamily=Helvetica;fontSize=11;fontColor=default;labelBackgroundColor=default;endArrow=none;endFill=0;" edge="1" parent="1" source="Ph7lW5ck54dBPAjGim_W-39" target="Ph7lW5ck54dBPAjGim_W-50">
          <mxGeometry relative="1" as="geometry" />
        </mxCell>
        <mxCell id="Ph7lW5ck54dBPAjGim_W-53" value="1" style="edgeLabel;html=1;align=center;verticalAlign=middle;resizable=0;points=[];fontFamily=Helvetica;fontSize=11;fontColor=default;labelBackgroundColor=default;" vertex="1" connectable="0" parent="Ph7lW5ck54dBPAjGim_W-51">
          <mxGeometry x="-0.0444" y="4" relative="1" as="geometry">
            <mxPoint y="2" as="offset" />
          </mxGeometry>
        </mxCell>
        <mxCell id="Ph7lW5ck54dBPAjGim_W-100" style="edgeStyle=orthogonalEdgeStyle;rounded=0;orthogonalLoop=1;jettySize=auto;html=1;exitX=0.5;exitY=1;exitDx=0;exitDy=0;entryX=1;entryY=0.5;entryDx=0;entryDy=0;strokeColor=default;align=center;verticalAlign=middle;fontFamily=Helvetica;fontSize=11;fontColor=default;labelBackgroundColor=default;endArrow=none;endFill=0;" edge="1" parent="1" source="Ph7lW5ck54dBPAjGim_W-39" target="Ph7lW5ck54dBPAjGim_W-40">
          <mxGeometry relative="1" as="geometry" />
        </mxCell>
        <mxCell id="Ph7lW5ck54dBPAjGim_W-106" style="edgeStyle=orthogonalEdgeStyle;rounded=0;orthogonalLoop=1;jettySize=auto;html=1;exitX=0;exitY=0.5;exitDx=0;exitDy=0;entryX=1;entryY=0.5;entryDx=0;entryDy=0;strokeColor=default;align=center;verticalAlign=middle;fontFamily=Helvetica;fontSize=11;fontColor=default;labelBackgroundColor=default;endArrow=none;endFill=0;" edge="1" parent="1" source="Ph7lW5ck54dBPAjGim_W-39" target="Ph7lW5ck54dBPAjGim_W-105">
          <mxGeometry relative="1" as="geometry" />
        </mxCell>
        <mxCell id="Ph7lW5ck54dBPAjGim_W-108" value="1" style="edgeLabel;html=1;align=center;verticalAlign=middle;resizable=0;points=[];fontFamily=Helvetica;fontSize=11;fontColor=default;labelBackgroundColor=default;" vertex="1" connectable="0" parent="Ph7lW5ck54dBPAjGim_W-106">
          <mxGeometry x="-0.7779" relative="1" as="geometry">
            <mxPoint as="offset" />
          </mxGeometry>
        </mxCell>
        <mxCell id="Ph7lW5ck54dBPAjGim_W-39" value="Клиент" style="whiteSpace=wrap;html=1;align=center;" vertex="1" parent="1">
          <mxGeometry x="370" y="740" width="100" height="40" as="geometry" />
        </mxCell>
        <mxCell id="Ph7lW5ck54dBPAjGim_W-40" value="ФИО" style="ellipse;whiteSpace=wrap;html=1;align=center;" vertex="1" parent="1">
          <mxGeometry x="220" y="790" width="100" height="40" as="geometry" />
        </mxCell>
        <mxCell id="Ph7lW5ck54dBPAjGim_W-101" style="edgeStyle=orthogonalEdgeStyle;rounded=0;orthogonalLoop=1;jettySize=auto;html=1;exitX=1;exitY=0.5;exitDx=0;exitDy=0;entryX=0.5;entryY=1;entryDx=0;entryDy=0;strokeColor=default;align=center;verticalAlign=middle;fontFamily=Helvetica;fontSize=11;fontColor=default;labelBackgroundColor=default;endArrow=none;endFill=0;" edge="1" parent="1" source="Ph7lW5ck54dBPAjGim_W-42" target="Ph7lW5ck54dBPAjGim_W-39">
          <mxGeometry relative="1" as="geometry" />
        </mxCell>
        <mxCell id="Ph7lW5ck54dBPAjGim_W-42" value="Почта" style="ellipse;whiteSpace=wrap;html=1;align=center;" vertex="1" parent="1">
          <mxGeometry x="220" y="837.5" width="100" height="42.5" as="geometry" />
        </mxCell>
        <mxCell id="Ph7lW5ck54dBPAjGim_W-102" style="edgeStyle=orthogonalEdgeStyle;rounded=0;orthogonalLoop=1;jettySize=auto;html=1;exitX=1;exitY=0.5;exitDx=0;exitDy=0;entryX=0.5;entryY=1;entryDx=0;entryDy=0;strokeColor=default;align=center;verticalAlign=middle;fontFamily=Helvetica;fontSize=11;fontColor=default;labelBackgroundColor=default;endArrow=none;endFill=0;" edge="1" parent="1" source="Ph7lW5ck54dBPAjGim_W-44" target="Ph7lW5ck54dBPAjGim_W-39">
          <mxGeometry relative="1" as="geometry" />
        </mxCell>
        <mxCell id="Ph7lW5ck54dBPAjGim_W-44" value="Номер телефона" style="ellipse;whiteSpace=wrap;html=1;align=center;" vertex="1" parent="1">
          <mxGeometry x="220" y="890" width="100" height="40" as="geometry" />
        </mxCell>
        <mxCell id="Ph7lW5ck54dBPAjGim_W-103" style="edgeStyle=orthogonalEdgeStyle;rounded=0;orthogonalLoop=1;jettySize=auto;html=1;exitX=1;exitY=0.5;exitDx=0;exitDy=0;entryX=0.5;entryY=1;entryDx=0;entryDy=0;strokeColor=default;align=center;verticalAlign=middle;fontFamily=Helvetica;fontSize=11;fontColor=default;labelBackgroundColor=default;endArrow=none;endFill=0;" edge="1" parent="1" source="Ph7lW5ck54dBPAjGim_W-46" target="Ph7lW5ck54dBPAjGim_W-39">
          <mxGeometry relative="1" as="geometry" />
        </mxCell>
        <mxCell id="Ph7lW5ck54dBPAjGim_W-46" value="Дата рождения" style="ellipse;whiteSpace=wrap;html=1;align=center;" vertex="1" parent="1">
          <mxGeometry x="220" y="940" width="100" height="40" as="geometry" />
        </mxCell>
        <mxCell id="Ph7lW5ck54dBPAjGim_W-56" style="edgeStyle=orthogonalEdgeStyle;rounded=0;orthogonalLoop=1;jettySize=auto;html=1;exitX=0.5;exitY=0;exitDx=0;exitDy=0;entryX=0.5;entryY=1;entryDx=0;entryDy=0;strokeColor=default;align=center;verticalAlign=middle;fontFamily=Helvetica;fontSize=11;fontColor=default;labelBackgroundColor=default;endArrow=none;endFill=0;" edge="1" parent="1" source="Ph7lW5ck54dBPAjGim_W-49" target="Ph7lW5ck54dBPAjGim_W-55">
          <mxGeometry relative="1" as="geometry">
            <mxPoint x="700" y="600" as="targetPoint" />
          </mxGeometry>
        </mxCell>
        <mxCell id="Ph7lW5ck54dBPAjGim_W-58" value="1" style="edgeLabel;html=1;align=center;verticalAlign=middle;resizable=0;points=[];fontFamily=Helvetica;fontSize=11;fontColor=default;labelBackgroundColor=default;" vertex="1" connectable="0" parent="Ph7lW5ck54dBPAjGim_W-56">
          <mxGeometry x="-0.6936" y="1" relative="1" as="geometry">
            <mxPoint as="offset" />
          </mxGeometry>
        </mxCell>
        <mxCell id="Ph7lW5ck54dBPAjGim_W-49" value="Абонемент клиента" style="whiteSpace=wrap;html=1;align=center;" vertex="1" parent="1">
          <mxGeometry x="650" y="740" width="100" height="40" as="geometry" />
        </mxCell>
        <mxCell id="Ph7lW5ck54dBPAjGim_W-52" style="edgeStyle=orthogonalEdgeStyle;rounded=0;orthogonalLoop=1;jettySize=auto;html=1;exitX=1;exitY=0.5;exitDx=0;exitDy=0;entryX=0;entryY=0.5;entryDx=0;entryDy=0;strokeColor=default;align=center;verticalAlign=middle;fontFamily=Helvetica;fontSize=11;fontColor=default;labelBackgroundColor=default;endArrow=none;endFill=0;" edge="1" parent="1" source="Ph7lW5ck54dBPAjGim_W-50" target="Ph7lW5ck54dBPAjGim_W-49">
          <mxGeometry relative="1" as="geometry" />
        </mxCell>
        <mxCell id="Ph7lW5ck54dBPAjGim_W-54" value="n" style="edgeLabel;html=1;align=center;verticalAlign=middle;resizable=0;points=[];fontFamily=Helvetica;fontSize=11;fontColor=default;labelBackgroundColor=default;" vertex="1" connectable="0" parent="Ph7lW5ck54dBPAjGim_W-52">
          <mxGeometry x="0.0296" y="3" relative="1" as="geometry">
            <mxPoint y="1" as="offset" />
          </mxGeometry>
        </mxCell>
        <mxCell id="Ph7lW5ck54dBPAjGim_W-50" value="Имеет" style="shape=rhombus;perimeter=rhombusPerimeter;whiteSpace=wrap;html=1;align=center;fontFamily=Helvetica;fontSize=11;fontColor=default;labelBackgroundColor=default;" vertex="1" parent="1">
          <mxGeometry x="500" y="730" width="120" height="60" as="geometry" />
        </mxCell>
        <mxCell id="Ph7lW5ck54dBPAjGim_W-57" style="edgeStyle=orthogonalEdgeStyle;rounded=0;orthogonalLoop=1;jettySize=auto;html=1;exitX=0.5;exitY=0;exitDx=0;exitDy=0;strokeColor=default;align=center;verticalAlign=middle;fontFamily=Helvetica;fontSize=11;fontColor=default;labelBackgroundColor=default;endArrow=none;endFill=0;" edge="1" parent="1" target="Ph7lW5ck54dBPAjGim_W-19">
          <mxGeometry relative="1" as="geometry">
            <mxPoint x="700" y="432" as="sourcePoint" />
          </mxGeometry>
        </mxCell>
        <mxCell id="Ph7lW5ck54dBPAjGim_W-59" value="1" style="edgeLabel;html=1;align=center;verticalAlign=middle;resizable=0;points=[];fontFamily=Helvetica;fontSize=11;fontColor=default;labelBackgroundColor=default;" vertex="1" connectable="0" parent="Ph7lW5ck54dBPAjGim_W-57">
          <mxGeometry x="0.5684" relative="1" as="geometry">
            <mxPoint x="-1" as="offset" />
          </mxGeometry>
        </mxCell>
        <mxCell id="Ph7lW5ck54dBPAjGim_W-55" value="Является экземпляром" style="shape=rhombus;perimeter=rhombusPerimeter;whiteSpace=wrap;html=1;align=center;fontFamily=Helvetica;fontSize=11;fontColor=default;labelBackgroundColor=none;fillColor=default;" vertex="1" parent="1">
          <mxGeometry x="640" y="412" width="120" height="60" as="geometry" />
        </mxCell>
        <mxCell id="Ph7lW5ck54dBPAjGim_W-71" style="edgeStyle=orthogonalEdgeStyle;rounded=0;orthogonalLoop=1;jettySize=auto;html=1;exitX=0;exitY=0.5;exitDx=0;exitDy=0;entryX=1;entryY=0.5;entryDx=0;entryDy=0;strokeColor=default;align=center;verticalAlign=middle;fontFamily=Helvetica;fontSize=11;fontColor=default;labelBackgroundColor=default;endArrow=none;endFill=0;" edge="1" parent="1" source="Ph7lW5ck54dBPAjGim_W-63" target="Ph7lW5ck54dBPAjGim_W-66">
          <mxGeometry relative="1" as="geometry">
            <Array as="points">
              <mxPoint x="40" y="702.5" />
              <mxPoint x="40" y="842.5" />
            </Array>
          </mxGeometry>
        </mxCell>
        <mxCell id="Ph7lW5ck54dBPAjGim_W-72" style="edgeStyle=orthogonalEdgeStyle;rounded=0;orthogonalLoop=1;jettySize=auto;html=1;exitX=0;exitY=0.5;exitDx=0;exitDy=0;entryX=1;entryY=0.5;entryDx=0;entryDy=0;strokeColor=default;align=center;verticalAlign=middle;fontFamily=Helvetica;fontSize=11;fontColor=default;labelBackgroundColor=default;endArrow=none;endFill=0;" edge="1" parent="1" source="Ph7lW5ck54dBPAjGim_W-63" target="Ph7lW5ck54dBPAjGim_W-65">
          <mxGeometry relative="1" as="geometry" />
        </mxCell>
        <mxCell id="Ph7lW5ck54dBPAjGim_W-73" style="edgeStyle=orthogonalEdgeStyle;rounded=0;orthogonalLoop=1;jettySize=auto;html=1;exitX=0;exitY=0.5;exitDx=0;exitDy=0;entryX=1;entryY=0.5;entryDx=0;entryDy=0;strokeColor=default;align=center;verticalAlign=middle;fontFamily=Helvetica;fontSize=11;fontColor=default;labelBackgroundColor=default;endArrow=none;endFill=0;" edge="1" parent="1" source="Ph7lW5ck54dBPAjGim_W-63" target="Ph7lW5ck54dBPAjGim_W-64">
          <mxGeometry relative="1" as="geometry" />
        </mxCell>
        <mxCell id="Ph7lW5ck54dBPAjGim_W-95" style="edgeStyle=orthogonalEdgeStyle;rounded=0;orthogonalLoop=1;jettySize=auto;html=1;exitX=0.5;exitY=0;exitDx=0;exitDy=0;entryX=0.5;entryY=1;entryDx=0;entryDy=0;strokeColor=default;align=center;verticalAlign=middle;fontFamily=Helvetica;fontSize=11;fontColor=default;labelBackgroundColor=default;endArrow=none;endFill=0;" edge="1" parent="1" source="Ph7lW5ck54dBPAjGim_W-63" target="Ph7lW5ck54dBPAjGim_W-94">
          <mxGeometry relative="1" as="geometry" />
        </mxCell>
        <mxCell id="Ph7lW5ck54dBPAjGim_W-97" value="1" style="edgeLabel;html=1;align=center;verticalAlign=middle;resizable=0;points=[];fontFamily=Helvetica;fontSize=11;fontColor=default;labelBackgroundColor=default;" vertex="1" connectable="0" parent="Ph7lW5ck54dBPAjGim_W-95">
          <mxGeometry x="-0.2417" y="-1" relative="1" as="geometry">
            <mxPoint x="-2" y="-1" as="offset" />
          </mxGeometry>
        </mxCell>
        <mxCell id="Ph7lW5ck54dBPAjGim_W-63" value="Расписание тренировок" style="whiteSpace=wrap;html=1;align=center;" vertex="1" parent="1">
          <mxGeometry x="60" y="682.5" width="100" height="40" as="geometry" />
        </mxCell>
        <mxCell id="Ph7lW5ck54dBPAjGim_W-64" value="Дата" style="ellipse;whiteSpace=wrap;html=1;align=center;" vertex="1" parent="1">
          <mxGeometry x="-80" y="722.5" width="100" height="40" as="geometry" />
        </mxCell>
        <mxCell id="Ph7lW5ck54dBPAjGim_W-65" value="Начало тренировки" style="ellipse;whiteSpace=wrap;html=1;align=center;" vertex="1" parent="1">
          <mxGeometry x="-80" y="772.5" width="100" height="40" as="geometry" />
        </mxCell>
        <mxCell id="Ph7lW5ck54dBPAjGim_W-66" value="Конец тренировки" style="ellipse;whiteSpace=wrap;html=1;align=center;" vertex="1" parent="1">
          <mxGeometry x="-80" y="822.5" width="100" height="40" as="geometry" />
        </mxCell>
        <mxCell id="Ph7lW5ck54dBPAjGim_W-91" style="edgeStyle=orthogonalEdgeStyle;rounded=0;orthogonalLoop=1;jettySize=auto;html=1;exitX=0;exitY=0.5;exitDx=0;exitDy=0;entryX=1;entryY=0.5;entryDx=0;entryDy=0;strokeColor=default;align=center;verticalAlign=middle;fontFamily=Helvetica;fontSize=11;fontColor=default;labelBackgroundColor=default;endArrow=none;endFill=0;" edge="1" parent="1" source="Ph7lW5ck54dBPAjGim_W-70" target="Ph7lW5ck54dBPAjGim_W-90">
          <mxGeometry relative="1" as="geometry" />
        </mxCell>
        <mxCell id="Ph7lW5ck54dBPAjGim_W-92" style="edgeStyle=orthogonalEdgeStyle;rounded=0;orthogonalLoop=1;jettySize=auto;html=1;exitX=0;exitY=0.5;exitDx=0;exitDy=0;entryX=1;entryY=0.5;entryDx=0;entryDy=0;strokeColor=default;align=center;verticalAlign=middle;fontFamily=Helvetica;fontSize=11;fontColor=default;labelBackgroundColor=default;endArrow=none;endFill=0;" edge="1" parent="1" source="Ph7lW5ck54dBPAjGim_W-70" target="Ph7lW5ck54dBPAjGim_W-89">
          <mxGeometry relative="1" as="geometry" />
        </mxCell>
        <mxCell id="Ph7lW5ck54dBPAjGim_W-93" style="edgeStyle=orthogonalEdgeStyle;rounded=0;orthogonalLoop=1;jettySize=auto;html=1;exitX=0;exitY=0.5;exitDx=0;exitDy=0;entryX=1;entryY=0.5;entryDx=0;entryDy=0;strokeColor=default;align=center;verticalAlign=middle;fontFamily=Helvetica;fontSize=11;fontColor=default;labelBackgroundColor=default;endArrow=none;endFill=0;" edge="1" parent="1" source="Ph7lW5ck54dBPAjGim_W-70" target="Ph7lW5ck54dBPAjGim_W-88">
          <mxGeometry relative="1" as="geometry" />
        </mxCell>
        <mxCell id="Ph7lW5ck54dBPAjGim_W-70" value="Тренировка" style="whiteSpace=wrap;html=1;align=center;" vertex="1" parent="1">
          <mxGeometry x="60" y="523" width="100" height="40" as="geometry" />
        </mxCell>
        <mxCell id="Ph7lW5ck54dBPAjGim_W-80" style="edgeStyle=orthogonalEdgeStyle;rounded=0;orthogonalLoop=1;jettySize=auto;html=1;exitX=1;exitY=0.5;exitDx=0;exitDy=0;entryX=0;entryY=0.5;entryDx=0;entryDy=0;strokeColor=default;align=center;verticalAlign=middle;fontFamily=Helvetica;fontSize=11;fontColor=default;labelBackgroundColor=default;endArrow=none;endFill=0;" edge="1" parent="1" source="Ph7lW5ck54dBPAjGim_W-74">
          <mxGeometry relative="1" as="geometry">
            <mxPoint x="510" y="450" as="targetPoint" />
            <Array as="points">
              <mxPoint x="490" y="543" />
              <mxPoint x="490" y="450" />
            </Array>
          </mxGeometry>
        </mxCell>
        <mxCell id="Ph7lW5ck54dBPAjGim_W-81" style="edgeStyle=orthogonalEdgeStyle;rounded=0;orthogonalLoop=1;jettySize=auto;html=1;exitX=1;exitY=0.5;exitDx=0;exitDy=0;entryX=0;entryY=0.5;entryDx=0;entryDy=0;strokeColor=default;align=center;verticalAlign=middle;fontFamily=Helvetica;fontSize=11;fontColor=default;labelBackgroundColor=default;endArrow=none;endFill=0;" edge="1" parent="1" source="Ph7lW5ck54dBPAjGim_W-74" target="Ph7lW5ck54dBPAjGim_W-76">
          <mxGeometry relative="1" as="geometry" />
        </mxCell>
        <mxCell id="Ph7lW5ck54dBPAjGim_W-82" style="edgeStyle=orthogonalEdgeStyle;rounded=0;orthogonalLoop=1;jettySize=auto;html=1;exitX=1;exitY=0.5;exitDx=0;exitDy=0;entryX=0;entryY=0.5;entryDx=0;entryDy=0;strokeColor=default;align=center;verticalAlign=middle;fontFamily=Helvetica;fontSize=11;fontColor=default;labelBackgroundColor=default;endArrow=none;endFill=0;" edge="1" parent="1" source="Ph7lW5ck54dBPAjGim_W-74" target="Ph7lW5ck54dBPAjGim_W-77">
          <mxGeometry relative="1" as="geometry" />
        </mxCell>
        <mxCell id="Ph7lW5ck54dBPAjGim_W-83" style="edgeStyle=orthogonalEdgeStyle;rounded=0;orthogonalLoop=1;jettySize=auto;html=1;exitX=1;exitY=0.5;exitDx=0;exitDy=0;entryX=0;entryY=0.5;entryDx=0;entryDy=0;strokeColor=default;align=center;verticalAlign=middle;fontFamily=Helvetica;fontSize=11;fontColor=default;labelBackgroundColor=default;endArrow=none;endFill=0;" edge="1" parent="1" source="Ph7lW5ck54dBPAjGim_W-74" target="Ph7lW5ck54dBPAjGim_W-78">
          <mxGeometry relative="1" as="geometry" />
        </mxCell>
        <mxCell id="Ph7lW5ck54dBPAjGim_W-84" style="edgeStyle=orthogonalEdgeStyle;rounded=0;orthogonalLoop=1;jettySize=auto;html=1;exitX=1;exitY=0.5;exitDx=0;exitDy=0;entryX=0;entryY=0.5;entryDx=0;entryDy=0;strokeColor=default;align=center;verticalAlign=middle;fontFamily=Helvetica;fontSize=11;fontColor=default;labelBackgroundColor=default;endArrow=none;endFill=0;" edge="1" parent="1" source="Ph7lW5ck54dBPAjGim_W-74" target="Ph7lW5ck54dBPAjGim_W-79">
          <mxGeometry relative="1" as="geometry" />
        </mxCell>
        <mxCell id="Ph7lW5ck54dBPAjGim_W-110" style="edgeStyle=orthogonalEdgeStyle;rounded=0;orthogonalLoop=1;jettySize=auto;html=1;exitX=0;exitY=0.5;exitDx=0;exitDy=0;entryX=1;entryY=0.5;entryDx=0;entryDy=0;strokeColor=default;align=center;verticalAlign=middle;fontFamily=Helvetica;fontSize=11;fontColor=default;labelBackgroundColor=default;endArrow=none;endFill=0;" edge="1" parent="1" source="Ph7lW5ck54dBPAjGim_W-74" target="Ph7lW5ck54dBPAjGim_W-99">
          <mxGeometry relative="1" as="geometry" />
        </mxCell>
        <mxCell id="Ph7lW5ck54dBPAjGim_W-112" value="1" style="edgeLabel;html=1;align=center;verticalAlign=middle;resizable=0;points=[];fontFamily=Helvetica;fontSize=11;fontColor=default;labelBackgroundColor=default;" vertex="1" connectable="0" parent="Ph7lW5ck54dBPAjGim_W-110">
          <mxGeometry x="-0.3093" relative="1" as="geometry">
            <mxPoint x="5" as="offset" />
          </mxGeometry>
        </mxCell>
        <mxCell id="Ph7lW5ck54dBPAjGim_W-74" value="Тренер" style="whiteSpace=wrap;html=1;align=center;" vertex="1" parent="1">
          <mxGeometry x="370" y="523" width="100" height="40" as="geometry" />
        </mxCell>
        <mxCell id="Ph7lW5ck54dBPAjGim_W-75" value="ФИО" style="ellipse;whiteSpace=wrap;html=1;align=center;" vertex="1" parent="1">
          <mxGeometry x="510" y="430" width="100" height="40" as="geometry" />
        </mxCell>
        <mxCell id="Ph7lW5ck54dBPAjGim_W-76" value="Почта" style="ellipse;whiteSpace=wrap;html=1;align=center;" vertex="1" parent="1">
          <mxGeometry x="510" y="478" width="100" height="40" as="geometry" />
        </mxCell>
        <mxCell id="Ph7lW5ck54dBPAjGim_W-77" value="Номер телефон" style="ellipse;whiteSpace=wrap;html=1;align=center;" vertex="1" parent="1">
          <mxGeometry x="510" y="523" width="100" height="40" as="geometry" />
        </mxCell>
        <mxCell id="Ph7lW5ck54dBPAjGim_W-78" value="Квалификация" style="ellipse;whiteSpace=wrap;html=1;align=center;" vertex="1" parent="1">
          <mxGeometry x="510" y="568" width="100" height="40" as="geometry" />
        </mxCell>
        <mxCell id="Ph7lW5ck54dBPAjGim_W-79" value="Цена в час" style="ellipse;whiteSpace=wrap;html=1;align=center;" vertex="1" parent="1">
          <mxGeometry x="510" y="618" width="100" height="40" as="geometry" />
        </mxCell>
        <mxCell id="Ph7lW5ck54dBPAjGim_W-88" value="Название" style="ellipse;whiteSpace=wrap;html=1;align=center;" vertex="1" parent="1">
          <mxGeometry x="-80" y="402" width="100" height="40" as="geometry" />
        </mxCell>
        <mxCell id="Ph7lW5ck54dBPAjGim_W-89" value="Тип" style="ellipse;whiteSpace=wrap;html=1;align=center;" vertex="1" parent="1">
          <mxGeometry x="-80" y="452" width="100" height="40" as="geometry" />
        </mxCell>
        <mxCell id="Ph7lW5ck54dBPAjGim_W-90" value="Описание" style="ellipse;whiteSpace=wrap;html=1;align=center;" vertex="1" parent="1">
          <mxGeometry x="-80" y="502" width="100" height="40" as="geometry" />
        </mxCell>
        <mxCell id="Ph7lW5ck54dBPAjGim_W-96" style="edgeStyle=orthogonalEdgeStyle;rounded=0;orthogonalLoop=1;jettySize=auto;html=1;exitX=0.5;exitY=0;exitDx=0;exitDy=0;strokeColor=default;align=center;verticalAlign=middle;fontFamily=Helvetica;fontSize=11;fontColor=default;labelBackgroundColor=default;endArrow=none;endFill=0;" edge="1" parent="1" source="Ph7lW5ck54dBPAjGim_W-94" target="Ph7lW5ck54dBPAjGim_W-70">
          <mxGeometry relative="1" as="geometry" />
        </mxCell>
        <mxCell id="Ph7lW5ck54dBPAjGim_W-98" value="n" style="edgeLabel;html=1;align=center;verticalAlign=middle;resizable=0;points=[];fontFamily=Helvetica;fontSize=11;fontColor=default;labelBackgroundColor=default;" vertex="1" connectable="0" parent="Ph7lW5ck54dBPAjGim_W-96">
          <mxGeometry x="0.7704" y="1" relative="1" as="geometry">
            <mxPoint y="6" as="offset" />
          </mxGeometry>
        </mxCell>
        <mxCell id="Ph7lW5ck54dBPAjGim_W-94" value="Находится" style="shape=rhombus;perimeter=rhombusPerimeter;whiteSpace=wrap;html=1;align=center;fontFamily=Helvetica;fontSize=11;fontColor=default;labelBackgroundColor=default;" vertex="1" parent="1">
          <mxGeometry x="50" y="590.5" width="120" height="60" as="geometry" />
        </mxCell>
        <mxCell id="Ph7lW5ck54dBPAjGim_W-111" style="edgeStyle=orthogonalEdgeStyle;rounded=0;orthogonalLoop=1;jettySize=auto;html=1;exitX=0;exitY=0.5;exitDx=0;exitDy=0;entryX=1;entryY=0.5;entryDx=0;entryDy=0;strokeColor=default;align=center;verticalAlign=middle;fontFamily=Helvetica;fontSize=11;fontColor=default;labelBackgroundColor=default;endArrow=none;endFill=0;" edge="1" parent="1" source="Ph7lW5ck54dBPAjGim_W-99" target="Ph7lW5ck54dBPAjGim_W-70">
          <mxGeometry relative="1" as="geometry" />
        </mxCell>
        <mxCell id="Ph7lW5ck54dBPAjGim_W-113" value="n" style="edgeLabel;html=1;align=center;verticalAlign=middle;resizable=0;points=[];fontFamily=Helvetica;fontSize=11;fontColor=default;labelBackgroundColor=default;" vertex="1" connectable="0" parent="Ph7lW5ck54dBPAjGim_W-111">
          <mxGeometry x="0.6967" relative="1" as="geometry">
            <mxPoint x="3" y="-1" as="offset" />
          </mxGeometry>
        </mxCell>
        <mxCell id="Ph7lW5ck54dBPAjGim_W-99" value="Проводит" style="shape=rhombus;perimeter=rhombusPerimeter;whiteSpace=wrap;html=1;align=center;fontFamily=Helvetica;fontSize=11;fontColor=default;labelBackgroundColor=default;" vertex="1" parent="1">
          <mxGeometry x="200" y="513" width="120" height="60" as="geometry" />
        </mxCell>
        <mxCell id="Ph7lW5ck54dBPAjGim_W-107" style="edgeStyle=orthogonalEdgeStyle;rounded=0;orthogonalLoop=1;jettySize=auto;html=1;exitX=0;exitY=0.5;exitDx=0;exitDy=0;entryX=1;entryY=0.5;entryDx=0;entryDy=0;strokeColor=default;align=center;verticalAlign=middle;fontFamily=Helvetica;fontSize=11;fontColor=default;labelBackgroundColor=default;endArrow=none;endFill=0;" edge="1" parent="1" source="Ph7lW5ck54dBPAjGim_W-105" target="Ph7lW5ck54dBPAjGim_W-63">
          <mxGeometry relative="1" as="geometry" />
        </mxCell>
        <mxCell id="Ph7lW5ck54dBPAjGim_W-109" value="n" style="edgeLabel;html=1;align=center;verticalAlign=middle;resizable=0;points=[];fontFamily=Helvetica;fontSize=11;fontColor=default;labelBackgroundColor=default;" vertex="1" connectable="0" parent="Ph7lW5ck54dBPAjGim_W-107">
          <mxGeometry x="0.5633" y="2" relative="1" as="geometry">
            <mxPoint x="-1" y="-3" as="offset" />
          </mxGeometry>
        </mxCell>
        <mxCell id="Ph7lW5ck54dBPAjGim_W-105" value="Составляет" style="shape=rhombus;perimeter=rhombusPerimeter;whiteSpace=wrap;html=1;align=center;fontFamily=Helvetica;fontSize=11;fontColor=default;labelBackgroundColor=default;" vertex="1" parent="1">
          <mxGeometry x="200" y="672.5" width="120" height="60" as="geometry" />
        </mxCell>
        <mxCell id="Ph7lW5ck54dBPAjGim_W-115" style="edgeStyle=orthogonalEdgeStyle;rounded=0;orthogonalLoop=1;jettySize=auto;html=1;exitX=0.5;exitY=0;exitDx=0;exitDy=0;entryX=0.5;entryY=1;entryDx=0;entryDy=0;strokeColor=default;align=center;verticalAlign=middle;fontFamily=Helvetica;fontSize=11;fontColor=default;labelBackgroundColor=default;endArrow=none;endFill=0;" edge="1" parent="1" source="Ph7lW5ck54dBPAjGim_W-114" target="Ph7lW5ck54dBPAjGim_W-1">
          <mxGeometry relative="1" as="geometry" />
        </mxCell>
        <mxCell id="Ph7lW5ck54dBPAjGim_W-118" value="n" style="edgeLabel;html=1;align=center;verticalAlign=middle;resizable=0;points=[];fontFamily=Helvetica;fontSize=11;fontColor=default;labelBackgroundColor=default;" vertex="1" connectable="0" parent="Ph7lW5ck54dBPAjGim_W-115">
          <mxGeometry x="0.5093" relative="1" as="geometry">
            <mxPoint as="offset" />
          </mxGeometry>
        </mxCell>
        <mxCell id="Ph7lW5ck54dBPAjGim_W-116" style="edgeStyle=orthogonalEdgeStyle;rounded=0;orthogonalLoop=1;jettySize=auto;html=1;exitX=0.5;exitY=1;exitDx=0;exitDy=0;entryX=0.5;entryY=0;entryDx=0;entryDy=0;strokeColor=default;align=center;verticalAlign=middle;fontFamily=Helvetica;fontSize=11;fontColor=default;labelBackgroundColor=default;endArrow=none;endFill=0;" edge="1" parent="1" source="Ph7lW5ck54dBPAjGim_W-114" target="Ph7lW5ck54dBPAjGim_W-74">
          <mxGeometry relative="1" as="geometry" />
        </mxCell>
        <mxCell id="Ph7lW5ck54dBPAjGim_W-117" value="n" style="edgeLabel;html=1;align=center;verticalAlign=middle;resizable=0;points=[];fontFamily=Helvetica;fontSize=11;fontColor=default;labelBackgroundColor=default;" vertex="1" connectable="0" parent="Ph7lW5ck54dBPAjGim_W-116">
          <mxGeometry x="0.5607" relative="1" as="geometry">
            <mxPoint as="offset" />
          </mxGeometry>
        </mxCell>
        <mxCell id="Ph7lW5ck54dBPAjGim_W-114" value="Работает" style="shape=rhombus;perimeter=rhombusPerimeter;whiteSpace=wrap;html=1;align=center;fontFamily=Helvetica;fontSize=11;fontColor=default;labelBackgroundColor=default;" vertex="1" parent="1">
          <mxGeometry x="360" y="402" width="120" height="60" as="geometry" />
        </mxCell>
      </root>
    </mxGraphModel>
  </diagram>
</mxfile>
